<?xml version="1.0" encoding="utf-8"?>
<svg xmlns="http://www.w3.org/2000/svg"
	xmlns:xlink="http://www.w3.org/1999/xlink"
	width="21px" height="20px" viewBox="0 0 21 20">
<path fillRule="evenodd" d="M 20.58 4.46C 20.58 4.46 19.37 13.37 19.37 13.37 19.19 14.29 18.35 15.01 17.49 15.01 17.49 15.01 6.61 15.01 6.61 15.01 5.75 15.01 4.91 14.29 4.73 13.37 4.73 13.37 3.26 3.09 3.26 3.09 3.12 2.35 3.11 2.11 3.13 2.03 3.13 2.03 1 2.03 1 2.03 0.45 2.03-0 1.58-0 1.03-0 0.48 0.45 0.03 1 0.03 1 0.03 5 0.03 5 0.03 5.55 0.03 6 0.48 6 1.03 6 1.55 5.6 1.96 5.1 2.01 5.1 2.01 19.07 2.01 19.07 2.01 20.17 2.01 20.84 3.14 20.58 4.46ZM 5.42 3.98C 5.42 3.98 6.73 12.98 6.73 12.98 6.73 12.98 17.4 12.98 17.4 12.98 17.4 12.98 17.4 12.97 17.41 12.96 17.41 12.96 18.59 4.18 18.59 4.18 18.59 4.18 18.62 3.98 18.62 3.98 18.62 3.98 5.42 3.98 5.42 3.98ZM 7.25 15.99C 8.28 15.99 9.12 16.83 9.12 17.86 9.12 18.9 8.28 19.74 7.25 19.74 6.21 19.74 5.37 18.9 5.37 17.86 5.37 16.83 6.21 15.99 7.25 15.99ZM 16.25 15.99C 17.28 15.99 18.12 16.83 18.12 17.86 18.12 18.9 17.28 19.74 16.25 19.74 15.21 19.74 14.37 18.9 14.37 17.86 14.37 16.83 15.21 15.99 16.25 15.99Z" fill="rgb(255,255,255)"/></svg>