<?xml version="1.0" encoding="utf-8"?>
<svg xmlns="http://www.w3.org/2000/svg"
	xmlns:xlink="http://www.w3.org/1999/xlink"
	width="108px" height="38px" viewBox="0 0 108 38">
<path fillRule="evenodd" d="M 103.91 29.72C 103.02 31.88 101.84 32.61 100.58 32.61 100.22 32.61 99.85 32.55 99.49 32.47 99.49 32.47 99.49 30.89 99.49 30.89 99.77 30.98 100.06 31.02 100.34 31.02 101.24 31.02 101.91 30.38 102.39 29.08 102.39 29.08 102.57 28.67 102.57 28.67 102.57 28.67 98.63 20.3 98.63 20.3 98.63 20.3 100.6 20.3 100.6 20.3 100.6 20.3 103.4 26.56 103.4 26.56 103.4 26.56 105.87 20.3 105.87 20.3 105.87 20.3 107.8 20.3 107.8 20.3 107.8 20.3 103.91 29.72 103.91 29.72ZM 95.86 23.46C 95.86 22.39 95.22 21.72 94.22 21.72 93.3 21.72 92.59 22.32 92.16 22.84 92.18 23.03 92.2 23.22 92.2 23.41 92.2 23.41 92.2 28.6 92.2 28.6 92.2 28.6 90.35 28.6 90.35 28.6 90.35 28.6 90.35 23.46 90.35 23.46 90.35 22.39 89.71 21.72 88.71 21.72 87.7 21.72 86.94 22.44 86.51 23 86.51 23 86.51 28.6 86.51 28.6 86.51 28.6 84.66 28.6 84.66 28.6 84.66 28.6 84.66 20.3 84.66 20.3 84.66 20.3 86.3 20.3 86.3 20.3 86.3 20.3 86.3 21.34 86.3 21.34 86.75 20.84 87.72 20.08 89.07 20.08 90.31 20.08 91.18 20.59 91.66 21.41 92.39 20.68 93.36 20.08 94.56 20.08 96.76 20.08 97.71 21.7 97.71 23.41 97.71 23.41 97.71 28.6 97.71 28.6 97.71 28.6 95.86 28.6 95.86 28.6 95.86 28.6 95.86 23.46 95.86 23.46ZM 76.54 25.14C 76.75 26.63 78.2 27.25 79.72 27.25 80.72 27.25 81.64 27.01 82.35 26.66 82.35 26.66 82.35 28.25 82.35 28.25 81.59 28.61 80.53 28.82 79.37 28.82 76.83 28.82 74.67 27.37 74.67 24.45 74.67 21.44 76.95 20.08 78.87 20.08 82.17 20.08 83.31 22.74 82.78 25.14 82.78 25.14 76.54 25.14 76.54 25.14ZM 78.96 21.61C 77.71 21.61 76.59 22.36 76.52 23.76 76.52 23.76 81.12 23.76 81.12 23.76 81.22 23.03 80.77 21.61 78.96 21.61ZM 71.22 27.28C 70.58 28.09 69.59 28.82 68.04 28.82 65.53 28.82 63.92 26.83 63.92 24.45 63.92 22.06 65.53 20.08 68.04 20.08 69.49 20.08 70.46 20.72 71.03 21.37 71.03 21.37 71.03 16.5 71.03 16.5 71.03 16.5 72.87 16.5 72.87 16.5 72.87 16.5 72.87 28.6 72.87 28.6 72.87 28.6 71.22 28.6 71.22 28.6 71.22 28.6 71.22 27.28 71.22 27.28ZM 71.01 23.43C 70.61 22.53 69.66 21.7 68.36 21.7 66.88 21.7 65.79 22.82 65.79 24.45 65.79 26.07 66.88 27.2 68.36 27.2 69.66 27.2 70.61 26.37 71.01 25.45 71.01 25.45 71.01 23.43 71.01 23.43ZM 71.03 1.97C 71.03 1.97 72.87 1.97 72.87 1.97 72.87 1.97 72.87 14.07 72.87 14.07 72.87 14.07 71.03 14.07 71.03 14.07 71.03 14.07 71.03 1.97 71.03 1.97ZM 66.47 8.94C 66.47 7.87 65.83 7.19 64.83 7.19 63.91 7.19 63.2 7.8 62.77 8.32 62.79 8.51 62.81 8.7 62.81 8.89 62.81 8.89 62.81 14.07 62.81 14.07 62.81 14.07 60.96 14.07 60.96 14.07 60.96 14.07 60.96 8.94 60.96 8.94 60.96 7.87 60.32 7.19 59.32 7.19 58.31 7.19 57.55 7.92 57.12 8.47 57.12 8.47 57.12 14.07 57.12 14.07 57.12 14.07 55.27 14.07 55.27 14.07 55.27 14.07 55.27 5.78 55.27 5.78 55.27 5.78 56.91 5.78 56.91 5.78 56.91 5.78 56.91 6.81 56.91 6.81 57.36 6.31 58.33 5.55 59.68 5.55 60.92 5.55 61.79 6.07 62.27 6.88 63 6.16 63.97 5.55 65.18 5.55 67.37 5.55 68.32 7.18 68.32 8.89 68.32 8.89 68.32 14.07 68.32 14.07 68.32 14.07 66.47 14.07 66.47 14.07 66.47 14.07 66.47 8.94 66.47 8.94ZM 57.98 21.68C 56.75 21.68 55.73 21.99 54.99 22.32 54.99 22.32 54.99 20.63 54.99 20.63 55.64 20.4 56.84 20.08 58.17 20.08 60.52 20.08 62 21.2 62 23.71 62 23.71 62 26.68 62 26.68 62 27.14 62.28 27.28 62.61 27.28 62.8 27.28 62.99 27.23 63.16 27.18 63.16 27.18 63.16 28.51 63.16 28.51 62.82 28.65 62.4 28.72 61.99 28.72 61.23 28.72 60.62 28.42 60.33 27.75 59.52 28.41 58.5 28.82 57.2 28.82 55.7 28.82 54.3 27.99 54.3 26.28 54.3 24.15 56.27 23.5 57.99 23.5 58.7 23.5 59.5 23.6 60.16 23.74 60.16 23.74 60.16 23.45 60.16 23.45 60.16 22.41 59.39 21.68 57.98 21.68ZM 58.36 24.79C 57.3 24.79 56.2 25.12 56.2 26.16 56.2 26.97 56.92 27.39 57.75 27.39 58.63 27.39 59.5 27.06 60.16 26.4 60.16 26.4 60.16 25 60.16 25 59.65 24.9 58.95 24.79 58.36 24.79ZM 48.07 11.55C 48.07 11.55 48.07 7.4 48.07 7.4 48.07 7.4 46.58 7.4 46.58 7.4 46.58 7.4 46.58 5.78 46.58 5.78 46.58 5.78 48.07 5.78 48.07 5.78 48.07 5.78 48.07 3.27 48.07 3.27 48.07 3.27 49.9 2.82 49.9 2.82 49.9 2.82 49.9 5.78 49.9 5.78 49.9 5.78 52.91 5.78 52.91 5.78 52.91 5.78 52.91 7.4 52.91 7.4 52.91 7.4 49.9 7.4 49.9 7.4 49.9 7.4 49.9 11.2 49.9 11.2 49.9 12.29 50.4 12.65 51.47 12.65 52.08 12.65 52.63 12.53 53.15 12.33 53.15 12.33 53.15 13.92 53.15 13.92 52.53 14.14 51.73 14.28 50.92 14.28 49.31 14.28 48.07 13.48 48.07 11.55ZM 50.49 20.08C 51.43 20.08 52.33 20.28 53.05 20.72 53.05 20.72 53.05 22.41 53.05 22.41 52.45 21.98 51.6 21.72 50.75 21.72 49.28 21.72 47.8 22.5 47.8 24.45 47.8 26.33 49.23 27.18 50.72 27.18 51.6 27.18 52.48 26.92 53.14 26.54 53.14 26.54 53.14 28.25 53.14 28.25 52.34 28.63 51.44 28.82 50.39 28.82 48.18 28.82 45.91 27.47 45.91 24.52 45.91 21.42 48.28 20.08 50.49 20.08ZM 42.32 27.75C 41.51 28.41 40.49 28.82 39.19 28.82 37.69 28.82 36.29 27.99 36.29 26.28 36.29 24.15 38.26 23.5 39.99 23.5 40.7 23.5 41.49 23.6 42.15 23.74 42.15 23.74 42.15 23.45 42.15 23.45 42.15 22.41 41.39 21.68 39.97 21.68 38.74 21.68 37.72 21.99 36.98 22.32 36.98 22.32 36.98 20.63 36.98 20.63 37.64 20.4 38.83 20.08 40.16 20.08 42.51 20.08 44 21.2 44 23.71 44 23.71 44 26.68 44 26.68 44 27.14 44.27 27.28 44.6 27.28 44.79 27.28 44.98 27.23 45.15 27.18 45.15 27.18 45.15 28.51 45.15 28.51 44.81 28.65 44.39 28.72 43.98 28.72 43.22 28.72 42.61 28.42 42.32 27.75ZM 42.15 25C 41.65 24.9 40.94 24.79 40.35 24.79 39.3 24.79 38.19 25.12 38.19 26.16 38.19 26.97 38.91 27.39 39.74 27.39 40.63 27.39 41.49 27.06 42.15 26.4 42.15 26.4 42.15 25 42.15 25ZM 42.98 9.18C 42.98 7.83 42.16 7.19 41.05 7.19 40 7.19 39.2 7.9 38.73 8.58 38.73 8.58 38.73 14.07 38.73 14.07 38.73 14.07 36.88 14.07 36.88 14.07 36.88 14.07 36.88 1.97 36.88 1.97 36.88 1.97 38.73 1.97 38.73 1.97 38.73 1.97 38.73 6.69 38.73 6.69 39.34 6.07 40.29 5.55 41.41 5.55 43.5 5.55 44.83 6.97 44.83 8.94 44.83 8.94 44.83 14.07 44.83 14.07 44.83 14.07 42.98 14.07 42.98 14.07 42.98 14.07 42.98 9.18 42.98 9.18ZM 0.19 28.6C 0.19 28.6 0.19 2.05 0.19 2.05 0.19 2.05 14.67 0.53 14.67 0.53 14.67 0.53 14.82 0.55 14.82 0.55 14.82 0.55 29.16 2.05 29.16 2.05 29.16 2.05 29.16 28.6 29.16 28.6 29.16 28.6 14.67 37.21 14.67 37.21 14.67 37.21 0.19 28.6 0.19 28.6ZM 27.26 3.76C 27.26 3.76 14.67 2.44 14.67 2.44 14.67 2.44 2.08 3.76 2.08 3.76 2.08 3.76 2.08 13.71 2.08 13.71 2.08 13.71 14.6 6.26 14.6 6.26 14.6 6.26 14.6 6.26 14.6 6.26 14.6 6.26 14.6 6.26 14.6 6.26 14.6 6.26 14.6 6.26 14.6 6.26 14.6 6.26 14.6 6.26 14.6 6.26 14.6 6.26 27.26 13.72 27.26 13.72 27.26 13.72 27.26 3.76 27.26 3.76ZM 14.63 18.77C 14.63 18.77 17.82 20.65 17.82 20.65 17.82 20.65 17.85 20.63 17.85 20.63 17.85 20.63 18.84 19.97 18.84 19.97 18.84 19.97 14.62 17.45 14.62 17.45 14.62 17.45 14.63 16.14 14.63 16.14 14.63 16.14 19.98 19.32 19.98 19.32 19.98 19.32 20.91 18.78 20.91 18.78 20.91 18.78 21.04 18.7 21.04 18.7 21.04 18.7 21.1 18.67 21.1 18.67 21.1 18.67 14.62 14.81 14.62 14.81 14.62 14.81 14.63 13.5 14.63 13.5 14.63 13.5 22.22 18.01 22.22 18.01 22.22 18.01 23.81 17.07 23.81 17.07 23.81 17.07 27.25 15.04 27.25 15.04 27.25 15.04 14.6 7.67 14.6 7.67 14.6 7.67 14.6 7.67 14.6 7.67 14.6 7.67 2.11 15.18 2.11 15.18 2.11 15.18 14.58 22.59 14.58 22.59 14.58 22.59 16.71 21.31 16.71 21.31 16.71 21.31 14.62 20.08 14.62 20.08 14.62 20.08 14.63 18.77 14.63 18.77ZM 27.26 16.45C 27.26 16.45 23.38 18.77 23.38 18.77 23.38 18.77 23.38 22.07 23.38 22.07 23.38 22.07 23.38 22.61 23.38 22.61 23.38 22.61 23.38 23.06 23.38 23.06 23.38 23.06 23.39 23.06 23.39 23.06 23.39 23.06 23.39 24.37 23.39 24.37 23.39 24.37 14.67 29.59 14.67 29.59 14.67 29.59 6.04 24.4 6.04 24.4 6.04 24.4 6.05 23.09 6.05 23.09 6.05 23.09 14.68 28.22 14.68 28.22 14.68 28.22 14.66 26.83 14.66 26.83 14.66 26.83 6.03 21.65 6.03 21.65 6.03 21.65 6.04 20.33 6.04 20.33 6.04 20.33 14.64 25.45 14.64 25.45 14.64 25.45 14.62 24.1 14.62 24.1 14.62 24.1 2.08 16.64 2.08 16.64 2.08 16.64 2.08 27.52 2.08 27.52 2.08 27.52 14.67 35.01 14.67 35.01 14.67 35.01 27.26 27.52 27.26 27.52 27.26 27.52 27.26 16.45 27.26 16.45Z" fill="rgb(255,255,255)"/></svg>