<?xml version="1.0" encoding="utf-8"?>
<svg xmlns="http://www.w3.org/2000/svg"
	xmlns:xlink="http://www.w3.org/1999/xlink"
	width="49px" height="49px" viewBox="0 0 49 49">
<path fillRule="evenodd" d="M 24.5 48.2C 11.41 48.2 0.8 37.59 0.8 24.5 0.8 11.41 11.41 0.8 24.5 0.8 37.59 0.8 48.2 11.41 48.2 24.5 48.2 37.59 37.59 48.2 24.5 48.2ZM 24.5 2.8C 12.53 2.8 2.8 12.53 2.8 24.5 2.8 36.47 12.53 46.2 24.5 46.2 36.47 46.2 46.2 36.47 46.2 24.5 46.2 12.53 36.47 2.8 24.5 2.8ZM 32.16 32C 32.16 32 16.62 32 16.62 32 16.18 32 15.81 31.64 15.81 31.19 15.81 31.19 15.81 16.51 15.81 16.51 15.81 14.22 16.71 12.07 18.33 10.45 19.95 8.83 22.1 7.94 24.39 7.94 26.68 7.94 28.83 8.83 30.45 10.45 32.07 12.07 32.97 14.22 32.97 16.51 32.97 16.51 32.97 31.19 32.97 31.19 32.97 31.64 32.6 32 32.16 32ZM 31.35 20.65C 30.71 20.44 30.32 19.99 30 19.65 29.63 19.23 29.45 19.05 29.06 19.05 29.03 19.06 28.92 19.14 28.75 19.48 28.57 19.81 28.41 20.27 28.26 20.7 28.06 21.28 27.84 21.87 27.56 22.35 27.14 23.07 26.59 23.43 25.94 23.43 25.29 23.43 24.75 23.07 24.32 22.35 24.04 21.87 23.83 21.28 23.63 20.7 23.47 20.27 23.31 19.81 23.14 19.48 22.97 19.14 22.85 19.06 22.83 19.05 22.44 19.05 22.25 19.23 21.89 19.65 21.46 20.12 20.87 20.78 19.73 20.78 18.59 20.78 18.01 20.12 17.58 19.65 17.52 19.59 17.48 19.54 17.43 19.49 17.43 19.49 17.43 30.38 17.43 30.38 17.43 30.38 31.35 30.38 31.35 30.38 31.35 30.38 31.35 20.65 31.35 20.65ZM 26.44 38.96C 26.44 40.09 25.52 41.01 24.39 41.01 23.26 41.01 22.34 40.09 22.34 38.96 22.34 38.96 22.34 32.8 22.34 32.8 22.34 32.8 26.44 32.8 26.44 32.8 26.44 32.8 26.44 38.96 26.44 38.96Z" fill="rgb(49,49,49)"/></svg>