<?xml version="1.0" encoding="utf-8"?>
<svg xmlns="http://www.w3.org/2000/svg"
	xmlns:xlink="http://www.w3.org/1999/xlink"
	width="49px" height="49px" viewBox="0 0 49 49">
<path fillRule="evenodd" d="M 24.5 48.2C 11.41 48.2 0.8 37.59 0.8 24.5 0.8 11.41 11.41 0.8 24.5 0.8 37.59 0.8 48.2 11.41 48.2 24.5 48.2 37.59 37.59 48.2 24.5 48.2ZM 24.5 2.8C 12.53 2.8 2.8 12.53 2.8 24.5 2.8 36.47 12.53 46.2 24.5 46.2 36.47 46.2 46.2 36.47 46.2 24.5 46.2 12.53 36.47 2.8 24.5 2.8ZM 24.44 40.62C 24.44 40.62 2.2 30.44 24.44 7.87 46.68 30.44 24.44 40.62 24.44 40.62ZM 23.4 11.98C 22.09 13.48 20.97 14.96 20.04 16.4 20.04 16.4 23.4 19.02 23.4 19.02 23.4 19.02 23.4 11.98 23.4 11.98ZM 23.4 21.48C 23.4 21.48 19 18.1 19 18.1 18.38 19.2 17.91 20.28 17.53 21.34 17.53 21.34 23.4 25.11 23.4 25.11 23.4 25.11 23.4 21.48 23.4 21.48ZM 23.4 27.49C 23.4 27.49 16.94 23.34 16.94 23.34 16.69 24.46 16.54 25.56 16.56 26.63 16.56 26.63 23.4 31.11 23.4 31.11 23.4 31.11 23.4 27.49 23.4 27.49ZM 23.4 33.49C 23.4 33.49 16.98 29.36 16.98 29.36 18.08 33.5 21.3 36.29 23.4 37.7 23.4 37.7 23.4 33.49 23.4 33.49ZM 25.4 11.88C 25.4 11.88 25.4 19.3 25.4 19.3 25.4 19.3 29.03 16.7 29.03 16.7 28.04 15.13 26.83 13.53 25.4 11.88ZM 30.04 18.42C 30.04 18.42 25.42 21.6 25.42 21.6 25.42 21.6 25.4 25.28 25.4 25.28 25.4 25.28 31.38 21.43 31.38 21.43 31.03 20.45 30.59 19.44 30.04 18.42ZM 31.95 23.44C 31.95 23.44 25.42 27.6 25.42 27.6 25.42 27.6 25.4 31.28 25.4 31.28 25.4 31.28 32.29 26.87 32.29 26.87 32.34 25.76 32.21 24.61 31.95 23.44ZM 25.42 33.6C 25.42 33.6 25.4 37.76 25.4 37.76 27.47 36.4 30.7 33.65 31.86 29.5 31.86 29.5 25.42 33.6 25.42 33.6Z" fill="rgb(49,49,49)"/></svg>