<?xml version="1.0" encoding="utf-8"?>
<svg xmlns="http://www.w3.org/2000/svg"
	xmlns:xlink="http://www.w3.org/1999/xlink"
	width="48px" height="49px" viewBox="0 0 48 49">
<path fillRule="evenodd" d="M 24.18 48.2C 11.09 48.2 0.48 37.59 0.48 24.5 0.48 11.41 11.09 0.8 24.18 0.8 37.27 0.8 47.88 11.41 47.88 24.5 47.88 37.59 37.27 48.2 24.18 48.2ZM 24.18 2.8C 12.22 2.8 2.48 12.53 2.48 24.5 2.48 36.47 12.22 46.2 24.18 46.2 36.15 46.2 45.88 36.47 45.88 24.5 45.88 12.53 36.15 2.8 24.18 2.8ZM 36 26C 36 26 32 26 32 26 31.45 26 31 25.55 31 25 31 24.45 31.45 24 32 24 32 24 36 24 36 24 36.55 24 37 24.45 37 25 37 25.55 36.55 26 36 26ZM 36 22C 36 22 32 22 32 22 31.45 22 31 21.55 31 21 31 20.45 31.45 20 32 20 32 20 36 20 36 20 36.55 20 37 20.45 37 21 37 21.55 36.55 22 36 22ZM 36 18C 36 18 32 18 32 18 31.45 18 31 17.55 31 17 31 16.45 31.45 16 32 16 32 16 36 16 36 16 36.55 16 37 16.45 37 17 37 17.55 36.55 18 36 18ZM 36 14C 36 14 32 14 32 14 31.45 14 31 13.55 31 13 31 12.45 31.45 12 32 12 32 12 36 12 36 12 36.55 12 37 12.45 37 13 37 13.55 36.55 14 36 14ZM 24.02 39.33C 20.27 39.33 17.2 36.29 17.2 32.56 17.2 30.94 18.02 29.28 19.02 27.96 19.02 27.96 19.02 13.12 19.02 13.12 19.02 10.39 21.27 8.17 24.02 8.17 26.78 8.17 29.02 10.39 29.02 13.12 29.02 13.12 29.02 28.03 29.02 28.03 30.02 29.31 30.8 30.92 30.8 32.56 30.8 36.29 27.77 39.33 24.02 39.33ZM 27.07 28.84C 27.07 28.84 27.07 13.12 27.07 13.12 27.07 11.49 25.69 10.17 24.07 10.17 22.44 10.17 21.07 11.49 21.07 13.12 21.07 13.12 21.07 28.78 21.07 28.78 20.07 29.66 19.22 31.05 19.22 32.56 19.22 35.19 21.39 37.33 24.02 37.33 26.66 37.33 28.82 35.19 28.82 32.56 28.82 31.08 28.07 29.73 27.07 28.84ZM 23.96 35.19C 22.42 35.19 21.18 33.95 21.18 32.42 21.18 31.2 21.97 30.18 23.05 29.81 23.05 29.81 23.05 12.97 23.05 12.97 23.05 12.45 23.48 12.03 24 12.03 24.53 12.03 24.95 12.45 24.95 12.97 24.95 12.97 24.95 29.84 24.95 29.84 25.99 30.24 26.73 31.24 26.73 32.42 26.73 33.95 25.49 35.19 23.96 35.19Z" fill="rgb(49,49,49)"/></svg>