<?xml version="1.0" encoding="utf-8"?>
<svg xmlns="http://www.w3.org/2000/svg"
	xmlns:xlink="http://www.w3.org/1999/xlink"
	width="32px" height="32px" viewBox="0 0 32 32">
<path fillRule="evenodd" d="M 15.86 31.61C 7.2 31.61 0.17 24.59 0.17 15.92 0.17 7.25 7.2 0.23 15.86 0.23 24.53 0.23 31.56 7.25 31.56 15.92 31.56 24.59 24.53 31.61 15.86 31.61ZM 23.88 9.78C 23.88 8.82 23.1 8.04 22.14 8.04 22.14 8.04 9.81 8.04 9.81 8.04 8.85 8.04 8.06 8.82 8.06 9.78 8.06 9.78 8.06 22.09 8.06 22.09 8.06 23.06 8.84 23.84 9.81 23.84 9.81 23.84 22.14 23.84 22.14 23.84 23.1 23.84 23.88 23.06 23.88 22.09 23.88 22.09 23.88 9.78 23.88 9.78ZM 21.56 12.9C 21.56 12.9 19.7 12.9 19.7 12.9 19.36 12.9 19.08 12.63 19.08 12.29 19.08 12.29 19.08 10.43 19.08 10.43 19.08 10.09 19.36 9.82 19.7 9.82 19.7 9.82 21.56 9.82 21.56 9.82 21.9 9.82 22.17 10.09 22.17 10.43 22.17 10.43 22.17 12.29 22.17 12.29 22.17 12.63 21.9 12.9 21.56 12.9ZM 16 18.81C 14.43 18.81 13.16 17.54 13.16 15.97 13.16 14.4 14.43 13.13 16 13.13 17.57 13.13 19.06 14.28 19.06 15.97 19.06 17.66 17.57 18.81 16 18.81ZM 16 20.9C 18.71 20.9 20.92 18.69 20.92 15.97 20.92 15.55 20.86 15.13 20.76 14.74 21.64 14.74 22.14 14.74 22.14 14.74 22.14 14.74 22.14 21.52 22.14 21.52 22.14 21.86 21.87 22.13 21.53 22.13 21.53 22.13 10.46 22.13 10.46 22.13 10.13 22.13 9.85 21.86 9.85 21.52 9.85 21.52 9.85 14.74 9.85 14.74 9.85 14.74 10.13 14.74 11.23 14.74 11.13 15.13 11.08 15.55 11.08 15.97 11.08 18.69 13.28 20.9 16 20.9Z" fill="rgb(255,255,255)" opacity="0.80"/></svg>