<?xml version="1.0" encoding="utf-8"?>
<svg xmlns="http://www.w3.org/2000/svg"
	xmlns:xlink="http://www.w3.org/1999/xlink"
	width="21px" height="19px" viewBox="0 0 21 19">
<path fillRule="evenodd" d="M 17.06 18.99C 17.06 18.99 6 18.99 6 18.99 4.34 18.99 3 17.64 3 15.99 3 15.99 3 15 3 15 3 15 5 15 5 15 5 15 5 17 5 17 5 17 18 17 18 17 18 17 18 2 18 2 18 2 5 2 5 2 5 2 5 3.97 5 3.97 5 3.97 3 3.97 3 3.97 3 3.97 3 3.01 3 3.01 3 1.35 4.34 0.01 6 0.01 6 0.01 17.06 0.01 17.06 0.01 18.72 0.01 20.06 1.35 20.06 3.01 20.06 3.01 20.06 15.99 20.06 15.99 20.06 17.64 18.72 18.99 17.06 18.99ZM 6.02 4.16C 6.02 4.16 13.05 9.46 13.05 9.46 13.05 9.46 6.02 14.76 6.02 14.76 6.02 14.76 6.02 12.01 6.02 12.01 6.02 12.01-0.01 12.01-0.01 12.01-0.01 12.01-0.01 6.9-0.01 6.9-0.01 6.9 6.02 6.9 6.02 6.9 6.02 6.9 6.02 4.16 6.02 4.16Z" fill="rgb(255,255,255)" opacity="0.99"/></svg>