<?xml version="1.0" encoding="utf-8"?>
<svg xmlns="http://www.w3.org/2000/svg"
	xmlns:xlink="http://www.w3.org/1999/xlink"
	width="154px" height="64px" viewBox="0 0 154 64">
<path fillRule="evenodd" d="M 153.83 52.85C 153.38 59.62 148.08 63.95 140.94 63.95 134.07 63.95 130.94 60.79 130.94 57.85 130.94 56.23 132.19 55.02 133.42 54.66 133.6 54.61 133.71 54.6 133.81 54.6 134.09 54.6 134.25 54.73 134.34 54.84 134.55 55.1 134.48 55.41 134.39 55.79 134.36 55.9 134.33 56.02 134.31 56.17 134.12 57.19 134.13 58.68 135.18 59.94 136.34 61.33 138.54 62.06 141.53 62.06 146.08 62.06 151.15 58.46 151.43 52.65 151.63 47.88 149.28 44.53 145.37 43.89 145.71 44.73 145.91 45.66 145.98 46.66 146.15 49.25 145.49 51.51 144.13 53.03 143.03 54.27 141.52 54.96 139.78 55.04 138.31 55.11 137.12 54.62 136.27 53.65 135.32 52.57 134.91 50.95 135.14 49.22 135.58 45.81 137.8 43.17 141.03 42.12 139.39 40.81 137.01 40.04 134.22 39.94 130.98 39.81 128.16 40.48 125.79 41.91 124.58 49.35 122.1 57.92 119.01 57.92 118.37 57.92 117.78 57.53 117.33 56.81 116.29 55.12 116.07 51.51 118.06 47.57 119.54 44.66 121.23 42.52 123.25 41.03 123.5 38.67 123.69 36.23 123.81 33.73 122.83 34.99 121.66 35.7 120.46 35.74 119.46 37.14 118.17 37.9 116.81 37.9 115.62 37.9 114.53 37.42 113.65 36.5 112.34 35.13 111.67 33 111.77 30.51 111.93 26.5 113.57 23.5 116.16 22.47 116.68 22.26 117.2 22.41 117.41 22.81 117.97 22.16 118.67 21.71 119.52 21.56 120.25 21.43 120.93 21.72 121.5 22.37 122.69 23.73 123.15 26.35 122.73 29.37 122.49 31.01 122.12 32.44 121.62 33.62 122.55 32.94 123.46 31.17 123.96 28.93 123.97 27.43 123.97 26.03 123.94 24.65 123.91 23.59 124.25 23.01 124.55 22.71 124.84 22.4 125.24 22.23 125.63 22.23 126.71 22.23 126.76 22.85 126.76 23.96 126.76 24.4 126.77 24.79 126.78 25.27 126.78 25.5 126.79 25.76 126.79 26.04 128 23.43 129.54 21.99 131.18 21.99 131.92 21.99 132.59 22.29 133.13 22.85 134.23 24.01 134.74 26.29 134.61 29.42 134.33 35.08 131.11 37.66 128.05 37.66 127.47 37.66 126.93 37.66 126.41 37.45 126.35 38.13 126.28 39.01 126.2 39.68 128.67 38.62 131.54 38.62 135.04 38.85 139.1 39.09 142.12 41.25 144.01 43.25 144.01 43.25 144.25 43.25 144.25 43.25 147.02 43.25 149.51 43.47 151.25 45.33 153.11 47.31 154.02 49.72 153.83 52.85ZM 120.6 47.68C 118.82 51.24 118.9 53.7 119.38 54.49 119.47 54.63 119.57 54.71 119.66 54.72 120.25 54.43 121.71 51.1 122.75 44.47 121.91 45.43 121.19 46.51 120.6 47.68ZM 115.71 30.2C 115.52 28.36 115.71 26.39 116.29 24.79 115.56 25.86 115.07 27.75 114.97 30.04 114.87 32.06 115.35 33.84 116.26 34.78 116.52 35.05 116.93 35.38 117.44 35.38 117.72 35.38 118.01 35.29 118.3 35.12 116.92 34.23 115.93 32.39 115.71 30.2ZM 119.93 24.93C 119.88 24.87 119.8 24.8 119.73 24.8 118.88 25.05 117.81 27.22 117.94 29.74 118 31.16 118.5 32.94 119.67 33.66 120.1 32.87 120.56 31.57 120.68 29.53 120.83 27.08 120.4 25.43 119.93 24.93ZM 128 35.63C 129.83 35.63 131.07 33.55 131.32 30.07 131.53 26.83 131.12 25.16 130.67 24.67 130.54 24.54 130.45 24.54 130.42 24.54 129.78 24.54 127.73 27.42 126.67 34.21 126.67 34.21 126.61 35.24 126.61 35.24 126.95 35.51 127.4 35.63 128 35.63ZM 143.62 47.23C 143.55 45.97 143.21 44.85 142.61 43.89 139.94 44.4 138.06 46.29 137.66 48.89 137.44 50.19 137.65 51.3 138.24 52.02 138.69 52.56 139.33 52.84 140.14 52.85 140.14 52.85 140.25 52.86 140.25 52.86 141.02 52.86 141.72 52.54 142.29 51.94 143.25 50.92 143.74 49.2 143.62 47.23ZM 112.38 38.8C 112.33 39.02 112.1 39.58 110.89 39.43 108.45 39.16 107.32 36.19 107.44 30.35 107.47 28.93 107.59 27.75 107.69 26.8 107.78 25.92 107.88 24.92 107.75 24.72 107.02 24.76 104.2 28.53 103.18 35.36 103.13 37.09 102.15 37.56 101.58 37.56 100.54 37.56 100.36 37.12 100.36 35.88 100.36 34.42 100.37 33.88 100.4 32.8 100.42 32.09 100.45 31.13 100.48 29.5 100.56 26.76 100.73 24.11 101.01 21.61 99.63 21.85 98.13 21.86 96.63 21.65 92.37 21.08 90.94 18.34 91.02 15.96 91.13 14.45 92.45 13.59 93.31 13.38 93.49 13.34 93.6 13.32 93.7 13.32 94.01 13.32 94.17 13.48 94.24 13.58 94.45 13.86 94.35 14.16 94.2 14.61 94.2 14.61 94.12 14.86 94.12 14.86 93.94 15.55 93.96 16.33 94.18 17.04 94.31 17.31 94.57 17.7 95.02 17.7 95.33 17.7 95.69 17.52 96 17.2 96.67 16.52 97.06 15.37 97.05 14.12 97.01 11.39 95.44 9.79 92.64 9.61 92.46 9.6 92.28 9.59 92.1 9.59 89.57 9.59 86.85 10.87 86.46 13.72 85.98 17.44 89.11 19.34 92.43 21.35 92.43 21.35 92.8 21.58 92.8 21.58 96.22 23.69 99.85 26.33 99.58 31.03 99.27 36.04 94.81 39.82 89.21 39.82 88.51 39.82 87.81 39.76 87.12 39.64 80.23 38.45 78.06 33.11 78.3 28.89 78.41 27.38 78.89 25.25 80.59 23.71 81.18 23.17 83.02 22.57 83.61 22.49 84.33 22.38 84.52 22.69 84.59 22.87 84.78 23.3 84.46 23.73 84.09 24.13 82.12 26.05 81.26 27.56 80.99 29.54 80.75 31.43 81.26 33.26 82.43 34.68 83.64 36.17 85.48 37.08 87.62 37.25 91.83 37.57 95.78 35.05 96.16 31.91 96.64 28.09 93.71 25.78 90.4 23.57 90.4 23.57 89.71 23.11 89.71 23.11 86.25 20.84 82.67 18.48 83.05 14.45 83.43 9.86 88.13 7.46 92.58 7.46 92.7 7.46 92.82 7.46 92.94 7.47 95.22 7.55 97.04 8.28 98.21 9.57 99.25 10.72 99.74 12.28 99.62 14.06 99.5 16.43 98.35 18.53 96.71 19.54 96.99 19.64 97.28 19.72 97.6 19.77 98.81 20 100.06 19.97 101.21 19.7 102.41 10.86 104.93 5.17 107.64 5.17 108.26 5.17 108.85 5.58 109.31 6.32 110.48 8.23 110.71 12.04 108.89 15.62 107.7 18.01 105.97 19.75 103.78 20.78 103.51 22.93 103.35 25.26 103.32 27.7 104.75 24.58 106.82 21.97 108.96 21.97 109.47 21.97 109.89 22.14 110.2 22.48 111.09 23.45 110.97 25.59 110.69 29.3 110.15 35.81 110.88 37.48 111.59 37.74 112.45 38.12 112.41 38.65 112.38 38.8ZM 106.56 15.42C 108.02 12.51 107.83 9.78 107.38 8.75 107.24 8.44 107.12 8.35 107.09 8.34 106.54 8.58 105.07 12.15 104.1 18.42 105.1 17.68 105.93 16.68 106.56 15.42ZM 77.52 29.71C 74.59 51.62 71.79 54.15 69.94 54.15 69.31 54.15 68.76 53.84 68.34 53.24 67.25 51.7 67.23 48.57 68.28 45.63 69.54 42.06 71.44 38.82 73.91 36.01 73.91 36.01 73.94 35.73 73.94 35.73 73.07 37.06 72.11 37.78 71.12 37.78 70.14 37.78 68.47 37.28 67.54 34.24 66.04 36.86 64.07 38.33 62 38.33 59.93 38.33 58.1 37.03 57.09 34.94 56.29 36.87 55.18 38.71 53.86 38.71 52.78 38.71 51.95 37.44 51.56 35.3 50.61 36.89 49.48 37.8 48.31 37.9 48.24 37.91 48.19 37.91 48.14 37.91 46.9 37.91 45.47 36.84 44.74 34.78 43.53 36.98 42.15 38.22 40.87 38.22 39.18 38.22 37.55 36.22 36.58 33.09 35.51 35.7 33.85 38.2 32.01 38.2 31.31 38.2 30.59 37.83 29.93 37.13 28.41 35.52 26.75 31.51 27.1 25.5 27.62 17.19 30.65 5.6 34.43 5.6 34.71 5.6 35.13 5.69 35.49 6.14 36.78 7.77 36.25 13.26 35.47 16.65 34.41 20.96 32.12 26.04 30.36 28.92 30.64 33.67 31.76 35.8 32.48 35.8 33.24 35.8 34.91 33.13 35.79 28.95 35.67 27.65 35.66 26.3 35.74 24.91 36.28 16.2 39.46 4.04 43.4 4.04 43.7 4.04 44.13 4.14 44.49 4.6 45.85 6.3 45.29 12.06 44.47 15.61 43.36 20.13 40.95 25.47 39.1 28.5 39.4 33.5 40.59 35.75 41.36 35.75 41.93 35.75 43.28 34.11 44.34 30.59 44.99 24.54 48.53 22.4 51.36 22.4 52.89 22.4 53.76 22.97 54.22 23.46 54.8 24.08 55.09 24.93 55.04 25.85 54.91 26.86 53.39 27.74 52.64 27.88 52.1 28 51.83 27.78 51.74 27.65 51.52 27.33 51.65 26.99 51.86 26.42 51.86 26.42 51.91 26.29 51.91 26.29 52.19 25.39 52.21 24.76 51.98 24.45 51.82 24.23 51.48 24.12 50.98 24.12 49.32 24.12 47.94 26.41 47.53 29.83 47.21 32.37 47.79 34.34 48.46 35.1 48.61 35.27 48.78 35.38 48.9 35.38 49.71 35.38 50.82 33.75 51.38 30.65 51.38 30.65 51.4 30.34 51.4 30.34 51.42 30.06 51.44 29.81 51.5 29.47 51.69 28.49 52.81 28.05 53.78 28.05 54.2 28.05 54.48 28.14 54.65 28.33 54.65 28.33 54.8 28.5 54.8 28.5 54.8 28.5 54.78 28.78 54.78 28.78 53.8 33.95 54.11 35.87 54.35 36.27 54.64 36.01 55.36 34.8 56.25 31.33 56.24 31.02 56.23 30.71 56.24 30.39 56.5 25.34 59.14 21.55 62.39 21.55 63.3 21.55 64.05 21.86 64.61 22.47 65.73 23.68 65.68 25.6 65.64 26.16 65.51 27.16 63.99 27.96 63.24 28.1 62.63 28.23 62.43 28.01 62.34 27.88 62.13 27.59 62.25 27.28 62.43 26.81 62.43 26.81 62.51 26.58 62.51 26.58 62.89 25.51 63.07 24.13 62.66 23.55 62.58 23.43 62.41 23.27 62 23.27 60.73 23.27 59.61 26.17 59.45 29.87 59.38 32.05 59.93 33.98 60.94 35.01 61.43 35.53 62.02 35.8 62.64 35.8 65.04 35.8 66.37 32.72 66.96 30.82 66.81 28.88 66.88 26.58 67.15 23.99 67.28 22.86 68.73 22.44 69.61 22.44 69.99 22.44 70.23 22.52 70.38 22.69 70.38 22.69 70.53 22.86 70.53 22.86 70.53 22.86 70.52 23.14 70.52 23.14 69.67 29.82 69.79 33.82 70.86 35.04 71.06 35.27 71.3 35.38 71.59 35.38 72.41 35.38 73.96 32.48 74.61 27.25 74.71 25.86 74.84 24.56 74.96 23.79 75.08 22.7 76.51 22.28 77.38 22.28 77.79 22.28 78.05 22.37 78.21 22.57 78.21 22.57 78.36 22.76 78.36 22.76 78.36 22.76 78.31 23.06 78.31 23.06 78.32 23.06 77.97 26.53 77.52 29.71ZM 70.53 45.76C 69.55 48.41 69.7 50.07 70.16 50.74 70.29 50.91 70.4 50.98 70.47 50.99 71.04 50.76 72.27 47.53 73.38 39.85 72.26 41.72 71.26 43.79 70.53 45.76ZM 33.18 16.75C 34.16 12.98 34.11 9.78 33.82 8.91 32.79 10.3 30.73 18.59 30.37 24.75 31.52 22.12 32.62 19 33.18 16.75ZM 42.12 15.74C 43.17 11.69 43.1 8.3 42.77 7.44 41.69 8.8 39.47 17.69 39.11 24.26 40.34 21.47 41.53 18.13 42.12 15.74ZM 10.89 18.36C 10.37 19.94 10.02 21.52 9.81 23.15 9.23 27.87 10.06 32.02 12.03 34.24 13.11 35.46 14.48 36.08 16.11 36.08 16.11 36.08 16.11 36.08 16.11 36.08 16.2 36.08 16.29 36.08 16.38 36.08 20.53 35.87 21.93 31.63 22.4 29.11 22.4 29.11 22.53 26.57 22.53 26.57 22.61 24.44 23.92 24.28 24.32 24.28 24.63 24.28 25.54 24.41 25.54 25 25.08 31.59 24.42 36.72 23.51 40.69 28.48 41.03 34.52 41.99 39.82 42.9 44.22 43.64 49.23 44.4 53 44.4 56.22 44.4 58.16 43.85 58.75 42.77 58.87 42.57 58.95 42.42 59 42.3 59.1 42.08 59.26 41.74 59.66 41.74 59.91 41.74 60.09 41.88 60.33 42.06 61.18 42.64 61.76 43.66 61.8 44.63 61.82 45.22 61.66 46.09 60.77 46.81 59.87 47.56 58.41 47.92 56.3 47.92 52.63 47.92 47.59 46.85 42.25 45.71 41.27 45.5 40.28 45.29 39.31 45.09 32.84 43.77 27.35 42.99 22.98 42.79 21.4 48.14 19.16 50.91 15.93 51.49 15.61 51.54 15.29 51.57 14.97 51.57 12.86 51.57 10.82 50.48 9.75 48.8 8.88 47.45 8.79 45.9 9.47 44.44 10.65 41.81 13.96 40.58 19.9 40.58 20.24 40.58 20.6 40.58 20.96 40.59 21.29 39.18 21.56 37.6 21.78 35.8 20.22 37.42 18.24 38.32 15.96 38.43 15.96 38.43 15.66 38.43 15.66 38.43 13.13 38.43 10.91 37.46 9.25 35.61 6.83 32.92 5.76 28.52 6.3 23.55 6.51 21.56 6.93 19.71 7.52 18.05 5.03 17.46 2.99 16.18 1.86 14.5 0.85 13.01 0.54 11.25 0.94 9.28 2.25 2.71 10.67 0.68 13.59 0.68 14.11 0.68 14.49 0.73 14.75 0.85 15.12 1.03 16.1 1.49 15.94 2.21 15.85 2.63 15.41 2.87 14.78 2.87 14.46 2.87 14.13 2.81 13.85 2.7 13.8 2.69 13.63 2.63 13.22 2.63 11.08 2.63 4.56 4.23 3.65 9.14 3.01 12.49 5.52 14.96 8.43 15.79 11 10.33 15.59 6.44 20.21 5.85 22.45 5.55 24.27 6.14 25.17 7.48 25.88 8.55 25.95 9.99 25.36 11.43 23.82 15.2 17.51 18.21 10.89 18.36ZM 13.05 44.77C 12.42 45.82 12.33 46.92 12.82 47.78 13.28 48.59 14.15 49.08 15.15 49.08 15.51 49.08 15.88 49.01 16.24 48.89 17.96 48.27 19.36 46.22 20.41 42.77 15.32 42.86 13.59 43.89 13.05 44.77ZM 21.91 8.82C 21.58 8.31 20.91 8.2 20.41 8.2 20.15 8.2 19.87 8.23 19.57 8.28 16.81 8.81 13.74 11.9 11.78 16.07 15.74 15.75 20.48 13.77 21.79 11.03 22.19 10.13 22.23 9.32 21.91 8.82Z" fill="rgb(255,255,255)"/></svg>