<?xml version="1.0" encoding="utf-8"?>
<svg xmlns="http://www.w3.org/2000/svg"
	xmlns:xlink="http://www.w3.org/1999/xlink"
	width="80px" height="140px" viewBox="0 0 80 140">
<path fillRule="evenodd" d="M 79.12 57.25C 79.12 66.4 71.67 73.84 62.52 73.84 58.17 73.84 54.08 72.18 51.01 69.21 50.79 69.28 50.56 69.35 50.34 69.42 49.09 71.83 47.26 73.9 45 75.45 42.23 77.36 38.98 78.36 35.61 78.36 30.2 78.36 25.2 75.7 22.13 71.44 19.84 72.99 17.12 73.84 14.25 73.84 6.5 73.84 0.19 67.53 0.19 59.78 0.19 54.95 2.68 50.53 6.62 47.98 5.19 44.1 4.46 40.02 4.46 35.82 4.46 26.41 8.13 17.56 14.78 10.9 21.44 4.24 30.29 0.58 39.7 0.58 49.12 0.58 57.97 4.24 64.62 10.9 71.28 17.56 74.95 26.41 74.95 35.82 74.95 38.94 74.54 42.03 73.73 45.01 77.14 48.13 79.12 52.56 79.12 57.25ZM 68.33 48.73C 67.17 47.93 66.68 46.46 67.13 45.13 68.14 42.14 68.66 39.01 68.66 35.82 68.66 28.09 65.65 20.81 60.18 15.35 54.71 9.88 47.44 6.87 39.7 6.87 31.97 6.87 24.7 9.88 19.23 15.35 13.76 20.81 10.75 28.09 10.75 35.82 10.75 40.13 11.67 44.27 13.49 48.14 13.87 48.94 13.89 49.87 13.55 50.69 13.21 51.52 12.53 52.15 11.69 52.45 8.57 53.53 6.48 56.48 6.48 59.78 6.48 64.07 9.97 67.55 14.25 67.55 16.71 67.55 18.97 66.43 20.46 64.46 21.06 63.67 21.99 63.21 22.96 63.21 23.12 63.21 23.28 63.22 23.43 63.25 24.57 63.42 25.53 64.2 25.92 65.28 27.39 69.35 31.29 72.08 35.61 72.08 39.84 72.08 43.59 69.55 45.17 65.63 45.54 64.72 46.32 64.03 47.27 63.77 48.44 63.46 49.6 63.07 50.71 62.61 52.02 62.07 53.52 62.47 54.39 63.58 56.36 66.11 59.32 67.55 62.52 67.55 68.2 67.55 72.83 62.93 72.83 57.25 72.83 53.84 71.15 50.66 68.33 48.73ZM 23.6 75.94C 23.6 75.94 23.64 75.99 23.64 75.99 23.64 75.99 23.65 75.98 23.65 75.98 24.4 76.62 25.21 77.19 26.05 77.7 26.05 77.7 25.71 78.05 25.71 78.05 25.71 78.05 28.98 81.33 28.98 81.33 28.98 81.33 30.63 79.68 30.63 79.68 31.77 80 32.94 80.21 34.13 80.31 34.13 80.31 31.05 83.39 31.05 83.39 31.05 83.39 34.33 86.67 34.33 86.67 34.33 86.67 37.6 83.39 37.6 83.39 37.6 83.39 34.55 80.34 34.55 80.34 34.91 80.36 35.27 80.37 35.63 80.37 36.59 80.37 37.55 80.29 38.49 80.15 38.49 80.15 39.67 81.33 39.67 81.33 39.67 81.33 41.61 79.38 41.61 79.38 43.21 78.84 44.74 78.08 46.15 77.11 48.14 75.74 49.85 73.99 51.18 71.99 51.71 72.4 52.27 72.79 52.85 73.14 52.85 73.14 55.7 75.99 55.7 75.99 55.7 75.99 56.75 74.93 56.75 74.93 58.59 75.54 60.54 75.85 62.53 75.85 62.77 75.85 63.01 75.84 63.25 75.83 63.25 75.83 41.88 136.71 41.88 136.71 41.27 138.44 40.47 139.31 39.67 139.31 38.87 139.31 38.07 138.44 37.46 136.71 37.46 136.71 16.06 75.75 16.06 75.75 18.03 75.53 19.93 74.96 21.67 74.05 22.27 74.73 22.92 75.36 23.6 75.94ZM 31.05 94.08C 31.05 94.08 34.33 97.35 34.33 97.35 34.33 97.35 37.6 94.08 37.6 94.08 37.6 94.08 34.33 90.8 34.33 90.8 34.33 90.8 31.05 94.08 31.05 94.08ZM 42.95 99.42C 42.95 99.42 39.67 96.14 39.67 96.14 39.67 96.14 36.39 99.42 36.39 99.42 36.39 99.42 39.67 102.7 39.67 102.7 39.67 102.7 42.95 99.42 42.95 99.42ZM 36.39 110.1C 36.39 110.1 39.67 113.38 39.67 113.38 39.67 113.38 42.95 110.1 42.95 110.1 42.95 110.1 39.67 106.83 39.67 106.83 39.67 106.83 36.39 110.1 36.39 110.1ZM 45.01 97.35C 45.01 97.35 48.29 94.08 48.29 94.08 48.29 94.08 45.01 90.8 45.01 90.8 45.01 90.8 41.73 94.08 41.73 94.08 41.73 94.08 45.01 97.35 45.01 97.35ZM 39.67 85.46C 39.67 85.46 36.39 88.73 36.39 88.73 36.39 88.73 39.67 92.01 39.67 92.01 39.67 92.01 42.95 88.73 42.95 88.73 42.95 88.73 39.67 85.46 39.67 85.46ZM 45.01 80.11C 45.01 80.11 41.73 83.39 41.73 83.39 41.73 83.39 45.01 86.67 45.01 86.67 45.01 86.67 48.29 83.39 48.29 83.39 48.29 83.39 45.01 80.11 45.01 80.11ZM 50.35 74.77C 50.35 74.77 47.08 78.05 47.08 78.05 47.08 78.05 50.35 81.33 50.35 81.33 50.35 81.33 53.63 78.05 53.63 78.05 53.63 78.05 50.35 74.77 50.35 74.77ZM 56.02 80.44C 56.02 80.44 55.7 80.11 55.7 80.11 55.7 80.11 52.42 83.39 52.42 83.39 52.42 83.39 54.32 85.29 54.32 85.29 54.32 85.29 56.02 80.44 56.02 80.44ZM 53.25 88.35C 53.25 88.35 50.35 85.46 50.35 85.46 50.35 85.46 47.08 88.73 47.08 88.73 47.08 88.73 50.35 92.01 50.35 92.01 50.35 92.01 52.83 89.54 52.83 89.54 52.83 89.54 53.25 88.35 53.25 88.35ZM 50.47 96.26C 50.47 96.26 50.35 96.14 50.35 96.14 50.35 96.14 47.08 99.42 47.08 99.42 47.08 99.42 48.77 101.11 48.77 101.11 48.77 101.11 50.47 96.26 50.47 96.26ZM 47.05 106C 47.05 106 47.69 104.17 47.69 104.17 47.69 104.17 45.01 101.48 45.01 101.48 45.01 101.48 41.73 104.76 41.73 104.76 41.73 104.76 45.01 108.04 45.01 108.04 45.01 108.04 47.05 106 47.05 106ZM 44.82 112.36C 44.82 112.36 41.73 115.45 41.73 115.45 41.73 115.45 43.21 116.93 43.21 116.93 43.21 116.93 44.82 112.36 44.82 112.36ZM 39.67 127.03C 39.67 127.03 42.14 119.98 42.14 119.98 42.14 119.98 39.67 117.51 39.67 117.51 39.67 117.51 37.2 119.98 37.2 119.98 37.2 119.98 39.67 127.03 39.67 127.03ZM 36.12 116.93C 36.12 116.93 37.6 115.45 37.6 115.45 37.6 115.45 34.52 112.36 34.52 112.36 34.52 112.36 36.12 116.93 36.12 116.93ZM 32.29 106C 32.29 106 34.33 108.04 34.33 108.04 34.33 108.04 37.6 104.76 37.6 104.76 37.6 104.76 34.33 101.48 34.33 101.48 34.33 101.48 31.64 104.17 31.64 104.17 31.64 104.17 32.29 106 32.29 106ZM 30.57 101.11C 30.57 101.11 32.26 99.42 32.26 99.42 32.26 99.42 28.98 96.14 28.98 96.14 28.98 96.14 28.87 96.26 28.87 96.26 28.87 96.26 30.57 101.11 30.57 101.11ZM 26.51 89.54C 26.51 89.54 28.98 92.01 28.98 92.01 28.98 92.01 32.26 88.73 32.26 88.73 32.26 88.73 28.98 85.46 28.98 85.46 28.98 85.46 26.09 88.35 26.09 88.35 26.09 88.35 26.51 89.54 26.51 89.54ZM 25.02 85.29C 25.02 85.29 26.92 83.39 26.92 83.39 26.92 83.39 23.64 80.11 23.64 80.11 23.64 80.11 23.32 80.44 23.32 80.44 23.32 80.44 25.02 85.29 25.02 85.29Z" fill="rgb(231,77,55)"/></svg>