<?xml version="1.0" encoding="utf-8"?>
<svg xmlns="http://www.w3.org/2000/svg"
	xmlns:xlink="http://www.w3.org/1999/xlink"
	width="31px" height="36px" viewBox="0 0 31 36">
<filter filterUnits="objectBoundingBox" x="-11.11" y="-9.38" width="122.22" height="118.75" id="filter0">
<feGaussianBlur in="SourceAlpha" stdDeviation="1.50" result="dsBlurOut1"/>
<feFlood flood-color="rgb(48,49,52)" flood-opacity="0.50" result="dsFloodOut1"/>
<feComposite in="dsFloodOut1" in2="dsBlurOut1" operator="in" result="dsShadow1"/>
<feOffset in="dsShadow1" dx="0.50" dy="0.87" result="dsOffset1"/>
<feComposite in="dsOffset1" in2="SourceAlpha" operator="out" result="dropShadow1"/>
<feBlend in="dropShadow1" in2="SourceGraphic" mode="normal" result="sourceGraphic"/>
</filter>
<path fillRule="evenodd" d="M 1.64 15.63C 1.64 15.63 5.33 15.63 5.33 15.63 5.33 15.63 5.33 1.14 5.33 1.14 5.33 1.14 14.22 1.14 14.22 1.14 18.12 1.14 20.24 1.32 21.47 1.64 25.1 2.59 27.88 5.86 27.88 10.95 27.88 16.77 24.15 19.82 20.79 20.54 19.24 20.86 17.44 21 14.53 21 14.53 21 11.49 21 11.49 21 11.49 21 11.49 23.73 11.49 23.73 11.49 23.73 26.51 23.73 26.51 23.73 26.51 23.73 26.51 29.09 26.51 29.09 26.51 29.09 11.49 29.09 11.49 29.09 11.49 29.09 11.49 33 11.49 33 11.49 33 5.33 33 5.33 33 5.33 33 5.33 29.09 5.33 29.09 5.33 29.09 1.64 29.09 1.64 29.09 1.64 29.09 1.64 23.73 1.64 23.73 1.64 23.73 5.33 23.73 5.33 23.73 5.33 23.73 5.33 21 5.33 21 5.33 21 1.64 21 1.64 21 1.64 21 1.64 15.63 1.64 15.63ZM 11.49 6.54C 11.49 6.54 11.49 15.59 11.49 15.59 11.49 15.59 13.85 15.59 13.85 15.59 16.4 15.59 17.65 15.41 18.51 15.09 20.15 14.5 21.24 12.91 21.24 11.04 21.24 8.73 19.7 7.13 17.65 6.77 16.88 6.63 15.76 6.54 13.44 6.54 13.44 6.54 11.49 6.54 11.49 6.54Z" fill="rgb(255,255,255)" filter="url(#filter0)"/></svg>