<?xml version="1.0" encoding="utf-8"?>
<svg xmlns="http://www.w3.org/2000/svg"
	xmlns:xlink="http://www.w3.org/1999/xlink"
	width="33px" height="32px" viewBox="0 0 33 32">
<path fillRule="evenodd" d="M 16.43 31.55C 7.76 31.55 0.74 24.52 0.74 15.86 0.74 7.19 7.76 0.17 16.43 0.17 25.09 0.17 32.12 7.19 32.12 15.86 32.12 24.52 25.09 31.55 16.43 31.55ZM 25.07 9.53C 24.37 9.95 23.59 10.25 22.76 10.42 22.1 9.71 21.15 9.27 20.1 9.27 18.09 9.27 16.46 10.9 16.46 12.91 16.46 13.2 16.49 13.47 16.55 13.74 13.53 13.59 10.84 12.14 9.05 9.93 8.73 10.47 8.55 11.1 8.55 11.77 8.55 13.03 9.2 14.14 10.17 14.8 9.58 14.78 9.02 14.61 8.52 14.34 8.52 14.36 8.52 14.37 8.52 14.39 8.52 16.15 9.78 17.62 11.45 17.96 11.14 18.04 10.82 18.09 10.49 18.09 10.25 18.09 10.02 18.06 9.8 18.02 10.26 19.47 11.61 20.52 13.2 20.55 11.96 21.53 10.39 22.11 8.68 22.11 8.39 22.11 8.1 22.09 7.81 22.06 9.42 23.09 11.34 23.7 13.39 23.7 20.09 23.7 23.76 18.15 23.76 13.33 23.76 13.17 23.75 13.02 23.75 12.86 24.46 12.35 25.08 11.71 25.56 10.98 24.91 11.27 24.21 11.46 23.47 11.55 24.22 11.1 24.8 10.38 25.07 9.53Z" fill="rgb(255,255,255)" opacity="0.80"/></svg>